<svg width="73" height="72" viewBox="0 0 73 72" fill="none" xmlns="http://www.w3.org/2000/svg">
<path d="M34.2629 44C34.8268 44 35.2629 44.4361 35.2629 45C35.2629 45.5639 34.8268 46 34.2629 46H32.7629C32.2227 45.9998 31.7629 45.5573 31.7629 45C31.7629 44.4362 32.1992 44.0002 32.7629 44H34.2629Z" fill="#48F597"/>
<path d="M39.9465 43.9941C40.5347 43.9071 41.1425 44.3166 41.2395 44.8145C41.3236 45.413 41.0185 45.8581 40.5325 45.9482L40.5168 45.9512L40.5022 45.9551C40.3326 45.9975 40.1262 46 39.8733 46H38.8528C38.2892 45.9998 37.8528 45.5637 37.8528 45C37.8528 44.4363 38.2892 44.0002 38.8528 44H39.9104L39.9465 43.9941Z" fill="#48F597"/>
<path d="M28.2229 40.0869C28.6391 39.8335 29.2117 39.9493 29.5149 40.3652L29.5715 40.4521L30.3186 41.7666L30.3264 41.7803C30.5963 42.2241 30.4467 42.8447 29.9612 43.1279L29.9543 43.1318L29.9485 43.1357C29.7955 43.2314 29.6487 43.2695 29.4631 43.2695C29.1231 43.2695 28.785 43.0879 28.6086 42.7744L28.6077 42.7734L27.8577 41.4531L27.8547 41.4463L27.8508 41.4404L27.8049 41.3545C27.6006 40.9196 27.7599 40.3573 28.2151 40.0918L28.2229 40.0869Z" fill="#48F597"/>
<path d="M43.3352 40.0322C43.617 39.5491 44.2118 39.392 44.6917 39.6719C45.1746 39.9537 45.3309 40.5486 45.051 41.0283L45.0481 41.0332L44.2981 42.3525L44.2971 42.3545C44.1208 42.6679 43.7835 42.8495 43.4436 42.8496C43.2826 42.8496 43.1071 42.8089 42.9583 42.7158L42.9514 42.7119L42.9456 42.708L42.8586 42.6514C42.4444 42.3521 42.3228 41.8014 42.5852 41.3516L42.5881 41.3467L43.3352 40.0322Z" fill="#48F597"/>
<path d="M28.3655 29.6816C28.6474 29.1989 29.2412 29.0425 29.7209 29.3223C30.204 29.604 30.361 30.1979 30.0813 30.6777L30.0784 30.6826L29.3284 32.0029L29.3274 32.0049C29.1511 32.3183 28.8129 32.5 28.4729 32.5C28.3121 32.4999 28.1372 32.4591 27.9885 32.3662L27.9749 32.3584L27.8889 32.3018C27.4744 32.0025 27.353 31.4519 27.6155 31.002L27.6184 30.9971L28.3655 29.6816Z" fill="#48F597"/>
<path d="M42.7131 28.8975C43.1292 28.6442 43.7009 28.7594 44.0042 29.1748L44.0618 29.2617L44.8088 30.5771L44.8118 30.584L44.8157 30.5898C45.0858 31.0337 44.937 31.6552 44.4514 31.9385L44.4446 31.9424L44.4387 31.9463C44.2857 32.0419 44.1389 32.0801 43.9534 32.0801C43.6133 32.0801 43.2752 31.8984 43.0989 31.585L43.0979 31.583L42.3479 30.2627L42.344 30.2568L42.3401 30.25C42.0701 29.8062 42.2198 29.1856 42.7053 28.9023L42.7131 28.8975Z" fill="#48F597"/>
<path d="M39.843 26C40.4199 26 40.8733 26.449 40.8733 27C40.8733 27.5771 40.4541 27.9998 39.9036 28H38.3137C37.7499 28 37.3137 27.5639 37.3137 27C37.3137 26.4361 37.7499 26 38.3137 26H39.843Z" fill="#48F597"/>
<path d="M33.7834 26.0303C34.3472 26.0304 34.7834 26.4665 34.7834 27.0303C34.7833 27.5939 34.3471 28.0302 33.7834 28.0303H32.2698C31.8422 27.9333 31.4857 27.6054 31.426 27.248L31.425 27.2422L31.4094 27.126C31.3525 26.5584 31.6519 26.1659 32.1047 26.082L32.1194 26.0791L32.134 26.0752C32.3031 26.0329 32.5085 26.0303 32.7932 26.0303H33.7834Z" fill="#48F597"/>
<path fill-rule="evenodd" clip-rule="evenodd" d="M48.3333 11C50.5471 11 52.3333 12.7861 52.3333 15C52.3333 16.9167 50.9457 18.5465 49.1321 18.9199L48.345 19.082L48.8381 19.7168C48.9486 19.8589 49.0793 20.0087 49.1741 20.123C49.2756 20.2456 49.3601 20.3563 49.4299 20.4717L56.4211 32.4717C56.4627 32.5449 56.4972 32.6231 56.5344 32.7178C56.5677 32.8024 56.6149 32.9338 56.6633 33.0469L56.9602 33.7393L57.4836 33.1973C58.2005 32.4539 59.2107 32 60.3333 32C62.5471 32 64.3333 33.7861 64.3333 36C64.3333 38.2139 62.5471 40 60.3333 40C59.2107 40 58.2005 39.5461 57.4836 38.8027L56.9602 38.2607L56.6633 38.9531C56.6149 39.0662 56.5677 39.1976 56.5344 39.2822C56.4972 39.3769 56.4627 39.4551 56.4211 39.5283L49.4309 51.5273C49.3609 51.6432 49.2759 51.754 49.1741 51.877C49.0793 51.9913 48.9486 52.1411 48.8381 52.2832L48.345 52.918L49.1321 53.0801C50.9457 53.4535 52.3333 55.0833 52.3333 57C52.3333 59.2139 50.5471 61 48.3333 61C46.1194 61 44.3333 59.2139 44.3333 57C44.3333 56.5039 44.4369 56.0518 44.6047 55.5762L44.8743 54.8135L44.0715 54.9141C43.7523 54.954 43.6152 55 43.3831 55H29.2834C29.2154 55 29.1325 54.9871 28.9954 54.9629C28.8777 54.9421 28.7053 54.9102 28.5334 54.9102H27.8118L28.0647 55.5859C28.2274 56.0199 28.3333 56.5 28.3333 57C28.3333 59.2139 26.5471 61 24.3333 61C22.1194 61 20.3333 59.2139 20.3333 57C20.3333 55.0833 21.7208 53.4535 23.5344 53.0801L24.3215 52.918L23.8284 52.2832C23.7179 52.1411 23.5872 51.9913 23.4924 51.877C23.3905 51.7539 23.3047 51.6433 23.2346 51.5273L16.2454 39.5283C16.2038 39.4551 16.1693 39.3769 16.1321 39.2822C16.0988 39.1976 16.0516 39.0662 16.0032 38.9531L15.7063 38.2607L15.1829 38.8027C14.466 39.5461 13.4558 40 12.3333 40C10.1194 40 8.33325 38.2139 8.33325 36C8.33325 33.7861 10.1194 32 12.3333 32C13.4558 32 14.466 32.4539 15.1829 33.1973L15.7063 33.7393L16.0032 33.0469C16.0516 32.9338 16.0988 32.8024 16.1321 32.7178C16.1693 32.6231 16.2038 32.5449 16.2454 32.4717L23.2356 20.4717C23.3055 20.3561 23.3908 20.2457 23.4924 20.123C23.5872 20.0087 23.7179 19.8589 23.8284 19.7168L24.3215 19.082L23.5344 18.9199C21.7208 18.5465 20.3333 16.9167 20.3333 15C20.3333 12.7861 22.1194 11 24.3333 11C26.5471 11 28.3333 12.7861 28.3333 15C28.3333 15.4961 28.2297 15.9482 28.0618 16.4238L27.7922 17.1865L28.595 17.0859C28.9142 17.046 29.0513 17 29.2834 17H43.3831C43.4511 17 43.534 17.0129 43.6711 17.0371C43.7888 17.0579 43.9612 17.0898 44.1331 17.0898H44.8547L44.6018 16.4141C44.4391 15.9801 44.3333 15.5 44.3333 15C44.3333 12.7861 46.1194 11 48.3333 11ZM24.3333 55C23.2171 55 22.3333 55.8839 22.3333 57C22.3333 58.1161 23.2171 59 24.3333 59C25.4494 59 26.3333 58.1161 26.3333 57C26.3333 55.8839 25.4494 55 24.3333 55ZM48.3333 55C47.2171 55 46.3333 55.8839 46.3333 57C46.3333 58.1161 47.2171 59 48.3333 59C49.4494 59 50.3333 58.1161 50.3333 57C50.3333 55.8839 49.4494 55 48.3333 55ZM29.2834 19.0303C27.4877 19.0303 25.853 19.9628 24.9524 21.4971L24.9514 21.498L17.9622 33.4971C17.0595 35.035 17.0616 36.9668 17.9592 38.5293L17.9612 38.5312L24.9514 50.5312L24.9543 50.5371C25.8529 52.0347 27.5143 53 29.2834 53H43.3831C45.1787 53 46.8135 52.0674 47.7141 50.5332L47.7151 50.5312L54.7043 38.5332C55.607 36.9954 55.6048 35.0635 54.7073 33.501L54.7053 33.498L47.7151 21.498L47.7122 21.4932L47.5344 21.2188C46.6051 19.8786 45.0417 19.0303 43.3831 19.0303H29.2834ZM12.3333 34C11.2171 34 10.3333 34.8839 10.3333 36C10.3333 37.1161 11.2171 38 12.3333 38C13.4494 38 14.3333 37.1161 14.3333 36C14.3333 34.8839 13.4494 34 12.3333 34ZM60.3333 34C59.2171 34 58.3333 34.8839 58.3333 36C58.3333 37.1161 59.2171 38 60.3333 38C61.4494 38 62.3333 37.1161 62.3333 36C62.3333 34.8839 61.4494 34 60.3333 34ZM24.3333 13C23.2171 13 22.3333 13.8839 22.3333 15C22.3333 16.1161 23.2171 17 24.3333 17C25.4494 17 26.3333 16.1161 26.3333 15C26.3333 13.8839 25.4494 13 24.3333 13ZM48.3333 13C47.2171 13 46.3333 13.8839 46.3333 15C46.3333 16.1161 47.2171 17 48.3333 17C49.4494 17 50.3333 16.1161 50.3333 15C50.3333 13.8839 49.4494 13 48.3333 13Z" fill="#48F597"/>
<path d="M26.3425 35.2366C26.345 34.6773 26.7815 34.2438 27.337 34.2463C27.8962 34.2489 28.3289 34.6859 28.3265 35.2413L28.3264 35.247L28.3365 36.7646L28.3366 36.7667C28.3407 37.1263 28.1393 37.4522 27.845 37.6223C27.7056 37.7028 27.5333 37.7552 27.3578 37.7491L27.3499 37.7491L27.3429 37.7487L27.2393 37.7431C26.7309 37.691 26.3503 37.2749 26.3526 36.7541L26.3527 36.7484L26.3425 35.2366Z" fill="#48F597"/>
<path d="M44.3278 35.2366C44.3303 34.6773 44.7668 34.2438 45.3224 34.2463C45.8815 34.2489 46.3143 34.6859 46.3118 35.2413L46.3117 35.247L46.3219 36.7646L46.322 36.7667C46.326 37.1263 46.1247 37.4522 45.8304 37.6223C45.6909 37.7028 45.5186 37.7552 45.3432 37.7491L45.3353 37.7491L45.3283 37.7487L45.2247 37.7431C44.7163 37.691 44.3356 37.2749 44.338 36.7541L44.3381 36.7484L44.3278 35.2366Z" fill="#48F597"/>
</svg>
