<svg width="166" height="125" viewBox="0 0 166 125" fill="none" xmlns="http://www.w3.org/2000/svg">
<g filter="url(#filter0_dddd_1564_375)">
<rect x="21" y="37.2764" width="136" height="40" rx="20" transform="rotate(-12 21 37.2764)" fill="#EB6340"/>
<path d="M82.05 4.59429C82.64 3.53761 84.026 3.24301 84.9948 3.96834L105.96 19.6648C107.336 20.6945 106.858 22.8648 105.177 23.2221L71.4434 30.3925C69.7628 30.7497 68.4437 28.9613 69.2814 27.4611L82.05 4.59429Z" fill="#EB6340"/>
<path d="M55.4586 56.7293C54.0292 57.0331 52.8055 56.7916 51.7877 56.0047C50.7676 55.2073 50.0624 53.8905 49.6721 52.0542C49.4769 51.136 49.4094 50.3052 49.4695 49.5618C49.5296 48.8184 49.7068 48.1646 50.0013 47.6004C50.2958 47.0362 50.6992 46.5742 51.2116 46.2145C51.7322 45.8421 52.3473 45.5805 53.0568 45.4297C54.0062 45.2279 54.8435 45.268 55.5687 45.5501C56.3043 45.8299 56.9411 46.3379 57.4793 47.0741L56.1655 48.204C55.8668 47.7222 55.4871 47.3722 55.0263 47.1539C54.5737 46.9229 54.0292 46.8751 53.3927 47.0104C52.5476 47.19 51.9461 47.6178 51.5881 48.2936C51.2301 48.9695 51.1587 49.8135 51.3738 50.8255L51.7265 52.4845C51.9416 53.4965 52.3501 54.2385 52.952 54.7103C53.5539 55.1821 54.2775 55.3282 55.1226 55.1486C55.7799 55.0089 56.2765 54.7288 56.6125 54.3085C56.9566 53.8754 57.1713 53.3718 57.2564 52.7976L58.8635 53.3556C58.6669 54.2262 58.2876 54.9557 57.7257 55.544C57.1637 56.1324 56.408 56.5275 55.4586 56.7293ZM63.8752 54.9403C63.3117 55.06 62.7742 55.0707 62.2626 54.9722C61.7613 54.8716 61.3102 54.673 60.9091 54.3766C60.5059 54.0698 60.1601 53.6743 59.8718 53.1904C59.5814 52.696 59.3674 52.1253 59.2299 51.4784C59.0924 50.8315 59.0569 50.2284 59.1234 49.669C59.1876 49.0992 59.3427 48.5973 59.5885 48.1634C59.8321 47.7191 60.1624 47.349 60.5793 47.0532C61.0067 46.7551 61.5021 46.5462 62.0655 46.4265C62.6289 46.3067 63.1612 46.2972 63.6624 46.3978C64.1741 46.4963 64.6315 46.6989 65.0348 47.0058C65.4359 47.3022 65.7816 47.6976 66.0721 48.192C66.3604 48.676 66.5733 49.2414 66.7108 49.8883C66.8483 50.5352 66.8849 51.1435 66.8206 51.7134C66.7541 52.2727 66.5991 52.7746 66.3555 53.219C66.1097 53.6529 65.7731 54.0189 65.3457 54.3169C64.9287 54.6127 64.4386 54.8205 63.8752 54.9403ZM63.5758 53.5317C64.16 53.4075 64.5918 53.1304 64.8712 52.7002C65.1483 52.2597 65.2104 51.6794 65.0573 50.9595L64.7646 49.5823C64.6116 48.8623 64.32 48.3627 63.8898 48.0834C63.4575 47.7936 62.9492 47.7108 62.3649 47.835C61.7806 47.9592 61.3499 48.2416 61.0728 48.6822C60.7934 49.1123 60.7303 49.6873 60.8833 50.4073L61.176 51.7845C61.3291 52.5044 61.6218 53.0092 62.0541 53.299C62.4843 53.5784 62.9915 53.6559 63.5758 53.5317ZM69.0069 53.6532L67.2771 45.515L68.983 45.1524L69.2691 46.4983L69.3473 46.4817C69.4316 46.0058 69.62 45.5841 69.9127 45.2165C70.2157 44.8468 70.6803 44.5953 71.3063 44.4623C72.141 44.2849 72.8466 44.4239 73.4232 44.8793C74.0081 45.322 74.4081 46.0494 74.6232 47.0615L75.7209 52.2261L74.0151 52.5887L72.9639 47.6432C72.6933 46.3703 72.0468 45.8425 71.0243 46.0598C70.8052 46.1064 70.5927 46.1843 70.3869 46.2934C70.1893 46.39 70.0193 46.5134 69.8767 46.6636C69.7342 46.8139 69.6296 46.9888 69.563 47.1883C69.5068 47.3856 69.5042 47.6043 69.5552 47.8443L70.7128 53.2906L69.0069 53.6532ZM80.2381 51.4622C79.466 51.6263 78.7903 51.6282 78.211 51.4678C77.6316 51.3074 77.0979 51.0283 76.6099 50.6304L77.4925 49.3959C77.8727 49.6968 78.2675 49.9127 78.6771 50.0438C79.0948 50.1622 79.5489 50.1693 80.0393 50.065C80.5401 49.9586 80.8905 49.7859 81.0906 49.5471C81.2988 49.2957 81.3664 48.9978 81.2932 48.6535C81.2377 48.3926 81.1025 48.1924 80.8874 48.0527C80.6805 47.9004 80.3577 47.8436 79.9188 47.8824L79.1476 47.9481C78.2908 48.0212 77.5825 47.921 77.0227 47.6474C76.4711 47.3611 76.1155 46.8424 75.9558 46.0912C75.8715 45.6947 75.8703 45.3297 75.952 44.996C76.0316 44.652 76.1796 44.3479 76.3961 44.0838C76.6208 43.807 76.9035 43.5724 77.2443 43.38C77.5955 43.1854 77.9954 43.0405 78.4441 42.9451C79.1744 42.7899 79.7935 42.7782 80.3014 42.9102C80.8197 43.0399 81.3047 43.2694 81.7564 43.5987L80.9207 44.8232C80.6588 44.6172 80.3368 44.4621 79.9548 44.3579C79.581 44.241 79.175 44.2292 78.7368 44.3223C78.2673 44.4221 77.9377 44.5903 77.7481 44.8269C77.5689 45.0613 77.5115 45.3298 77.5758 45.6323C77.6423 45.9453 77.7914 46.159 78.0229 46.2734C78.2544 46.3878 78.597 46.4349 79.0507 46.4148L79.8219 46.349C80.748 46.2939 81.4567 46.4214 81.9479 46.7314C82.4473 47.0287 82.7668 47.506 82.9065 48.1633C82.9908 48.5598 82.9891 48.9364 82.9013 49.2931C82.8218 49.6372 82.6655 49.9539 82.4326 50.2433C82.1997 50.5327 81.8983 50.7822 81.5285 50.9917C81.1586 51.2011 80.7285 51.358 80.2381 51.4622ZM89.5236 47.8855L89.461 47.8988C89.4301 48.1126 89.372 48.3266 89.2867 48.5411C89.2119 48.7533 89.0961 48.9524 88.9393 49.1383C88.7908 49.3117 88.595 49.4678 88.3519 49.6067C88.1192 49.7434 87.8359 49.8472 87.5021 49.9182C86.6569 50.0978 85.942 49.9663 85.3571 49.5235C84.7827 49.0786 84.388 48.3501 84.1729 47.338L83.0718 42.1577L84.7776 41.7951L85.8322 46.7563C86.1005 48.0188 86.7564 48.5391 87.7997 48.3173C88.0188 48.2708 88.2272 48.1992 88.4248 48.1027C88.6201 47.9957 88.7839 47.8682 88.916 47.7202C89.0585 47.57 89.1579 47.3962 89.2141 47.1988C89.2807 46.9993 89.2885 46.7795 89.2375 46.5396L88.0799 41.0932L89.7858 40.7306L91.5156 48.8688L89.8097 49.2314L89.5236 47.8855ZM95.2259 48.0802C94.6417 48.2044 94.1724 48.1514 93.8182 47.9214C93.4721 47.6787 93.2426 47.2913 93.1295 46.7592L91.0271 36.8681L92.733 36.5055L94.8986 46.6939L96.0254 46.4544L96.3215 47.8473L95.2259 48.0802ZM99.6593 47.1378C99.0646 47.2642 98.5838 47.2083 98.2169 46.9701C97.8478 46.7214 97.6033 46.3153 97.4836 45.7519L96.4257 40.7751L95.158 41.0445L94.862 39.6517L95.5506 39.5053C95.8323 39.4454 96.012 39.3418 96.0897 39.1944C96.1779 39.0448 96.192 38.8291 96.1322 38.5474L95.8294 37.1233L97.3632 36.7972L97.8355 39.0196L99.5414 38.657L99.8375 40.0499L98.1316 40.4125L99.2693 45.7649L100.85 45.4289L101.146 46.8218L99.6593 47.1378ZM108.615 45.2342C108.166 45.3296 107.795 45.2776 107.502 45.0782C107.207 44.8684 106.991 44.5707 106.854 44.1854L106.776 44.202C106.728 44.7465 106.523 45.1935 106.162 45.5431C105.8 45.8926 105.321 46.1306 104.727 46.257C103.882 46.4367 103.183 46.3562 102.631 46.0155C102.089 45.6727 101.739 45.1309 101.582 44.3901C101.409 43.5763 101.571 42.9038 102.069 42.3727C102.577 41.8394 103.4 41.4519 104.537 41.2101L106.008 40.8974L105.862 40.2088C105.755 39.708 105.538 39.3508 105.209 39.1372C104.88 38.9236 104.429 38.8777 103.855 38.9997C103.375 39.1017 103.006 39.2892 102.747 39.5622C102.489 39.8352 102.29 40.1556 102.15 40.5234L100.937 39.8162C101.11 39.2995 101.411 38.843 101.84 38.4466C102.266 38.0398 102.875 37.7521 103.668 37.5835C104.722 37.3596 105.583 37.4329 106.25 37.8035C106.918 38.1741 107.349 38.8185 107.545 39.7367L108.413 43.8214L109.274 43.6384L109.57 45.0313L108.615 45.2342ZM104.936 44.8549C105.468 44.7418 105.882 44.5339 106.177 44.2312C106.47 43.918 106.575 43.5632 106.491 43.1667L106.241 41.9929L104.801 42.299C103.622 42.5496 103.11 43.0401 103.266 43.7704L103.326 44.0521C103.403 44.4173 103.582 44.6683 103.862 44.8051C104.15 44.9292 104.508 44.9458 104.936 44.8549ZM112.98 44.3065C112.385 44.4329 111.904 44.3769 111.537 44.1387C111.168 43.89 110.924 43.4839 110.804 42.9205L109.746 37.9437L108.479 38.2132L108.183 36.8203L108.871 36.6739C109.153 36.614 109.333 36.5104 109.41 36.363C109.498 36.2134 109.513 35.9978 109.453 35.7161L109.15 34.2919L110.684 33.9659L111.156 36.1882L112.862 35.8256L113.158 37.2185L111.452 37.5811L112.59 42.9335L114.171 42.5976L114.467 43.9904L112.98 44.3065ZM114.794 33.8937C114.44 33.9691 114.161 33.941 113.959 33.8096C113.767 33.6759 113.643 33.4787 113.587 33.2178L113.531 32.9518C113.475 32.6909 113.508 32.4604 113.629 32.2602C113.761 32.0578 114.004 31.9189 114.358 31.8435C114.713 31.7681 114.987 31.7972 115.179 31.9309C115.371 32.0645 115.494 32.2618 115.55 32.5226L115.606 32.7887C115.662 33.0495 115.629 33.2801 115.508 33.4803C115.387 33.6805 115.149 33.8183 114.794 33.8937ZM114.243 35.5321L115.949 35.1695L117.679 43.3077L115.973 43.6703L114.243 35.5321ZM122.878 42.3989C122.314 42.5187 121.777 42.5293 121.265 42.4309C120.764 42.3302 120.313 42.1317 119.912 41.8353C119.508 41.5284 119.163 41.133 118.874 40.649C118.584 40.1546 118.37 39.5839 118.232 38.9371C118.095 38.2902 118.059 37.6871 118.126 37.1277C118.19 36.5579 118.345 36.056 118.591 35.6221C118.835 35.1777 119.165 34.8076 119.582 34.5118C120.009 34.2138 120.505 34.0049 121.068 33.8851C121.631 33.7654 122.164 33.7558 122.665 33.8565C123.177 33.9549 123.634 34.1576 124.037 34.4644C124.438 34.7608 124.784 35.1563 125.075 35.6507C125.363 36.1346 125.576 36.7001 125.713 37.347C125.851 37.9938 125.887 38.6022 125.823 39.172C125.757 39.7314 125.602 40.2332 125.358 40.6776C125.112 41.1115 124.776 41.4775 124.348 41.7755C123.931 42.0714 123.441 42.2791 122.878 42.3989ZM122.578 40.9904C123.163 40.8662 123.594 40.589 123.874 40.1589C124.151 39.7183 124.213 39.138 124.06 38.4181L123.767 37.0409C123.614 36.321 123.322 35.8214 122.892 35.542C122.46 35.2522 121.952 35.1694 121.367 35.2936C120.783 35.4178 120.352 35.7002 120.075 36.1408C119.796 36.5709 119.733 37.146 119.886 37.8659L120.179 39.2431C120.332 39.963 120.624 40.4679 121.057 40.7577C121.487 41.037 121.994 41.1146 122.578 40.9904ZM128.009 41.1118L126.28 32.9736L127.985 32.611L128.272 33.957L128.35 33.9403C128.434 33.4644 128.622 33.0427 128.915 32.6752C129.218 32.3054 129.683 32.054 130.309 31.9209C131.143 31.7435 131.849 31.8825 132.426 32.3379C133.011 32.7806 133.411 33.508 133.626 34.5201L134.723 39.6847L133.018 40.0473L131.966 35.1018C131.696 33.8289 131.049 33.3011 130.027 33.5185C129.808 33.565 129.595 33.6429 129.389 33.7521C129.192 33.8486 129.022 33.972 128.879 34.1222C128.737 34.2725 128.632 34.4474 128.565 34.6469C128.509 34.8443 128.507 35.0629 128.558 35.3029L129.715 40.7492L128.009 41.1118Z" fill="#F4F4F4"/>
</g>
<defs>
<filter id="filter0_dddd_1564_375" x="-3.35217" y="0.863539" width="172.461" height="126.949" filterUnits="userSpaceOnUse" color-interpolation-filters="sRGB">
<feFlood flood-opacity="0" result="BackgroundImageFix"/>
<feColorMatrix in="SourceAlpha" type="matrix" values="0 0 0 0 0 0 0 0 0 0 0 0 0 0 0 0 0 0 127 0" result="hardAlpha"/>
<feOffset dy="2.7058"/>
<feGaussianBlur stdDeviation="2.7058"/>
<feColorMatrix type="matrix" values="0 0 0 0 0.45098 0 0 0 0 0.45098 0 0 0 0 0.45098 0 0 0 0.1 0"/>
<feBlend mode="normal" in2="BackgroundImageFix" result="effect1_dropShadow_1564_375"/>
<feColorMatrix in="SourceAlpha" type="matrix" values="0 0 0 0 0 0 0 0 0 0 0 0 0 0 0 0 0 0 127 0" result="hardAlpha"/>
<feOffset dx="-2.7058" dy="9.47029"/>
<feGaussianBlur stdDeviation="4.73515"/>
<feColorMatrix type="matrix" values="0 0 0 0 0.45098 0 0 0 0 0.45098 0 0 0 0 0.45098 0 0 0 0.09 0"/>
<feBlend mode="normal" in2="effect1_dropShadow_1564_375" result="effect2_dropShadow_1564_375"/>
<feColorMatrix in="SourceAlpha" type="matrix" values="0 0 0 0 0 0 0 0 0 0 0 0 0 0 0 0 0 0 127 0" result="hardAlpha"/>
<feOffset dx="-5.41159" dy="20.2935"/>
<feGaussianBlur stdDeviation="6.08804"/>
<feColorMatrix type="matrix" values="0 0 0 0 0.45098 0 0 0 0 0.45098 0 0 0 0 0.45098 0 0 0 0.05 0"/>
<feBlend mode="normal" in2="effect2_dropShadow_1564_375" result="effect3_dropShadow_1564_375"/>
<feColorMatrix in="SourceAlpha" type="matrix" values="0 0 0 0 0 0 0 0 0 0 0 0 0 0 0 0 0 0 127 0" result="hardAlpha"/>
<feOffset dx="-9.47029" dy="36.5283"/>
<feGaussianBlur stdDeviation="7.44094"/>
<feColorMatrix type="matrix" values="0 0 0 0 0.45098 0 0 0 0 0.45098 0 0 0 0 0.45098 0 0 0 0.01 0"/>
<feBlend mode="normal" in2="effect3_dropShadow_1564_375" result="effect4_dropShadow_1564_375"/>
<feBlend mode="normal" in="SourceGraphic" in2="effect4_dropShadow_1564_375" result="shape"/>
</filter>
</defs>
</svg>
