<svg width="73" height="72" viewBox="0 0 73 72" fill="none" xmlns="http://www.w3.org/2000/svg">
<path fill-rule="evenodd" clip-rule="evenodd" d="M57.6666 47C58.2305 47 58.6666 47.4361 58.6666 48V57C58.6666 60.8639 55.5305 64 51.6666 64H24.6666C20.8028 64 17.6666 60.8639 17.6666 57V48C17.6666 47.4361 18.1028 47 18.6666 47C19.2305 47 19.6666 47.4361 19.6666 48V53H56.6666V48C56.6666 47.4361 57.1028 47 57.6666 47ZM19.6666 55V57C19.6666 59.7661 21.9005 62 24.6666 62H51.6666C54.4328 62 56.6666 59.7661 56.6666 57V55H19.6666Z" fill="#48F597"/>
<path d="M47.1666 23C50.1905 23 52.6666 25.4761 52.6666 28.5V34.5C52.6666 36.4261 54.2405 38 56.1666 38H60.6666C61.2305 38 61.6666 38.4361 61.6666 39C61.6666 39.5639 61.2305 40 60.6666 40H56.1666C53.1428 40 50.6666 37.5239 50.6666 34.5V28.5C50.6666 26.5739 49.0928 25 47.1666 25C45.2405 25 43.6666 26.5739 43.6666 28.5V43.5C43.6666 46.5239 41.1905 49 38.1666 49C35.1428 49 32.6666 46.5239 32.6666 43.5V28.5C32.6666 26.5739 31.0928 25 29.1666 25C27.2405 25 25.6666 26.5739 25.6666 28.5V34.5C25.6666 37.5239 23.1905 40 20.1666 40H15.6666C15.1028 40 14.6666 39.5639 14.6666 39C14.6666 38.4361 15.1028 38 15.6666 38H20.1666C22.0928 38 23.6666 36.4261 23.6666 34.5V28.5C23.6666 25.4761 26.1428 23 29.1666 23C32.1905 23 34.6666 25.4761 34.6666 28.5V43.5C34.6666 45.4261 36.2405 47 38.1666 47C40.0928 47 41.6666 45.4261 41.6666 43.5V28.5C41.6666 25.4761 44.1428 23 47.1666 23Z" fill="#48F597"/>
<path d="M51.6666 8C55.5305 8 58.6666 11.1361 58.6666 15V30C58.6666 30.5639 58.2305 31 57.6666 31C57.1028 31 56.6666 30.5639 56.6666 30V15C56.6666 12.2339 54.4328 10 51.6666 10H24.6666C21.9005 10 19.6666 12.2339 19.6666 15V30C19.6666 30.5639 19.2305 31 18.6666 31C18.1028 31 17.6666 30.5639 17.6666 30V15C17.6666 11.1361 20.8028 8 24.6666 8H51.6666Z" fill="#48F597"/>
<path d="M42.6666 14C43.2305 14 43.6666 14.4361 43.6666 15C43.6666 15.5639 43.2305 16 42.6666 16H33.6666C33.1028 16 32.6666 15.5639 32.6666 15C32.6666 14.4361 33.1028 14 33.6666 14H42.6666Z" fill="#48F597"/>
</svg>
