<svg width="72" height="72" viewBox="0 0 72 72" fill="none" xmlns="http://www.w3.org/2000/svg">
<path fill-rule="evenodd" clip-rule="evenodd" d="M59.625 9.833C60.1203 10.7138 60.5787 11.5288 61.0874 12.0375H61.0986C61.6026 12.5415 62.4137 12.9976 63.292 13.4915C65.2368 14.5851 67.5111 15.864 67.5111 18.2587C67.5111 20.6388 65.3041 21.8873 63.3385 22.9993L63.3261 23.0063C60.9737 24.3359 60.8057 24.6421 60.0822 25.9605C59.7712 26.5273 59.3576 27.2811 58.6236 28.3837C60.0186 33.615 58.8036 39.15 55.3161 43.29C54.8284 43.8737 54.2214 44.48 46.3515 52.3415C43.1477 55.5419 38.7403 59.9446 32.6474 66.0375C32.2086 66.4762 31.4999 66.4762 31.0611 66.0375L9.34863 44.325C3.16113 38.3963 2.75613 27.6188 9.34863 21.0263C15.6036 14.76 25.4699 14.6813 31.8486 20.2838C34.8974 17.6175 38.8349 16.1775 42.8961 16.2225C43.7172 15.0381 45.1662 14.22 46.4654 13.4865C47.3381 12.9938 48.1431 12.5393 48.6449 12.0375C49.1489 11.5335 49.605 10.7224 50.0989 9.8441C51.1925 7.89933 52.4714 5.625 54.8661 5.625C57.2584 5.625 58.5318 7.88923 59.625 9.833ZM57.6383 25.6294C58.2132 24.6192 58.806 23.5776 59.4899 22.8938C60.1803 22.2033 61.2271 21.6063 62.2397 21.0288C63.7845 20.1478 65.2499 19.3121 65.2499 18.2587C65.2499 17.19 63.6974 16.3125 62.2011 15.4688C59.5349 13.9613 59.1524 13.5675 57.6449 10.9125C55.3499 6.84 54.3599 6.84 52.0649 10.9125C50.5574 13.5787 50.1636 13.9725 47.5086 15.4688C43.4361 17.7638 43.4361 18.7537 47.5086 21.0487C47.5518 21.0736 47.5951 21.0984 47.6385 21.1233C48.5771 21.6622 49.5424 22.2163 50.2199 22.8938C50.9156 23.5894 51.5123 24.6387 52.0885 25.6519C52.9658 27.1946 53.7956 28.6537 54.8549 28.6537C55.9171 28.6537 56.7568 27.1783 57.6383 25.6294ZM31.8374 63.6637L11.8686 43.695L9.79863 41.4338C2.56488 32.1975 9.11238 18.45 20.9924 18.45C24.7949 18.45 28.3611 19.935 31.0499 22.6238C31.4774 23.0513 32.2199 23.0513 32.6361 22.6238C35.2011 20.0588 38.6661 18.585 42.2549 18.4725C42.3933 20.7406 44.5913 21.9788 46.4719 23.0382C47.3432 23.529 48.1462 23.9814 48.6449 24.48C49.1536 24.9887 49.6119 25.8037 50.1073 26.6845C51.2005 28.6282 52.4739 30.8925 54.8661 30.8925C55.5861 30.8925 56.1936 30.6787 56.7336 30.3412C57.3861 34.2787 56.3624 38.2838 53.8761 41.445L51.8061 43.695L31.8374 63.6637Z" fill="#48F597"/>
</svg>
