<svg width="24" height="24" viewBox="0 0 24 24" fill="none" xmlns="http://www.w3.org/2000/svg">
<path fill-rule="evenodd" clip-rule="evenodd" d="M3.5584 20.4596H7.1209V9.00332H3.5584V20.4596Z" fill="#F4F4F4"/>
<path fill-rule="evenodd" clip-rule="evenodd" d="M16.8943 20.4596H20.4521V14.1736C20.4521 11.0893 19.7865 8.71738 16.1818 8.71738C14.4521 8.71738 13.2896 9.66895 12.8162 10.5689H12.7693V9.00332H9.35684V20.4596H12.91V14.7971C12.91 13.3018 13.1912 11.8533 15.0428 11.8533C16.8709 11.8533 16.8943 13.5643 16.8943 14.8908V20.4596Z" fill="#F4F4F4"/>
<path fill-rule="evenodd" clip-rule="evenodd" d="M3.27246 5.37988C3.27246 6.51895 4.1959 7.44238 5.33965 7.44238C6.47871 7.44238 7.40215 6.51426 7.40215 5.37988C7.40215 4.24082 6.47871 3.31738 5.33965 3.31738C4.1959 3.31738 3.27246 4.24082 3.27246 5.37988Z" fill="#F4F4F4"/>
</svg>
