<svg width="51" height="48" viewBox="0 0 51 48" fill="none" xmlns="http://www.w3.org/2000/svg">
<path d="M36.6091 21.3954C36.0006 22.0055 35.5347 22.7418 35.2444 23.5517C34.9542 24.3618 34.8467 25.2256 34.9297 26.0818L34.9008 26.053C34.9863 27.0608 34.8498 28.0749 34.5012 29.0248C34.1527 29.9746 33.6004 30.8371 32.8829 31.5523C32.1652 32.2674 31.2996 32.8179 30.3464 33.1651C29.3934 33.5125 28.3756 33.6485 27.3645 33.5634L27.3934 33.5922C26.1838 33.48 24.9689 33.7422 23.9142 34.3434C22.8597 34.9445 22.0168 35.8551 21.5006 36.9511C20.9844 38.0471 20.8198 39.2749 21.0295 40.4675C21.2394 41.66 21.813 42.7591 22.6725 43.6147C23.5319 44.4704 24.6352 45.0411 25.832 45.249C27.0289 45.457 28.2608 45.2919 29.3602 44.7765C30.4595 44.261 31.3724 43.4203 31.9746 42.3688C32.5768 41.3173 32.839 40.1064 32.7254 38.901L32.7559 38.9298C32.6704 37.9221 32.8067 36.9079 33.1553 35.9579C33.5039 35.0082 34.0563 34.1456 34.7738 33.4304C35.4915 32.7154 36.3571 32.1648 37.3101 31.8176C38.2633 31.4703 39.2809 31.3343 40.2922 31.4194L40.2617 31.3906C41.2498 31.4791 42.2444 31.3176 43.1533 30.9211C44.062 30.5247 44.8558 29.9059 45.4607 29.1224C46.0657 28.3389 46.4626 27.4157 46.6142 26.4387C46.7659 25.4616 46.6676 24.4623 46.3285 23.533C45.9895 22.6039 45.4205 21.7751 44.6744 21.1234C43.9283 20.4717 43.0292 20.0183 42.0604 19.8051C41.0916 19.592 40.0845 19.6259 39.1324 19.9039C38.1803 20.1819 37.3141 20.6949 36.6139 21.3954H36.6091Z" fill="#48F597"/>
<path d="M24.7649 29.8196L24.7344 29.7908C25.5938 29.8771 26.4618 29.772 27.2756 29.483C28.0893 29.194 28.8285 28.7286 29.4396 28.1201C30.0505 27.5116 30.5183 26.7753 30.8087 25.9646C31.0993 25.1539 31.2055 24.2891 31.1196 23.4324L31.1501 23.4612C31.0647 22.4534 31.2011 21.4393 31.5495 20.4894C31.8981 19.5396 32.4506 18.6771 33.1681 17.9619C33.8857 17.2468 34.7513 16.6963 35.7043 16.3491C36.6575 16.0017 37.6751 15.8658 38.6864 15.9508L38.6559 15.922C39.8657 16.0353 41.0809 15.7738 42.1361 15.1734C43.1914 14.573 44.035 13.6628 44.5519 12.567C45.0689 11.4712 45.2341 10.2432 45.0251 9.05036C44.816 7.85755 44.2429 6.75806 43.3836 5.90184C42.5245 5.04563 41.4212 4.47436 40.2242 4.26601C39.0273 4.05764 37.7951 4.2223 36.6954 4.73753C35.5958 5.25275 34.6826 6.09347 34.08 7.145C33.4775 8.19653 33.2151 9.40768 33.3288 10.6132L33.2999 10.5828C33.3855 11.5907 33.2493 12.605 32.9009 13.5549C32.5525 14.5049 32.0001 15.3676 31.2825 16.0828C30.5649 16.7979 29.6992 17.3484 28.746 17.6956C27.7926 18.0428 26.7748 18.1785 25.7635 18.0932L25.7924 18.1236C24.933 18.0374 24.0649 18.1425 23.2512 18.4315C22.4375 18.7203 21.6983 19.1859 21.0873 19.7944C20.4762 20.4028 20.0085 21.1392 19.7179 21.9499C19.4275 22.7606 19.3213 23.6254 19.4072 24.482L19.3783 24.4532C19.4634 25.4609 19.3268 26.475 18.9782 27.4248C18.6295 28.3744 18.0772 29.2369 17.3597 29.952C16.6421 30.667 15.7767 31.2174 14.8237 31.5649C13.8707 31.9123 12.8531 32.0484 11.842 31.9636L11.8709 31.9924C10.6611 31.8792 9.44578 32.1406 8.39061 32.7411C7.33545 33.3416 6.49183 34.2516 5.97483 35.3475C5.45782 36.4433 5.29258 37.6713 5.50166 38.8641C5.71075 40.0569 6.28399 41.1564 7.14316 42.0126C8.00234 42.8689 9.10563 43.4401 10.3026 43.6484C11.4995 43.8568 12.7318 43.6921 13.8314 43.1769C14.931 42.6617 15.8443 41.8211 16.4468 40.7696C17.0493 39.7179 17.3117 38.5068 17.198 37.3012L17.2285 37.33C17.1431 36.3222 17.2796 35.3081 17.6281 34.3582C17.9765 33.4084 18.529 32.5459 19.2465 31.8307C19.9642 31.1156 20.8297 30.5651 21.7828 30.2179C22.736 29.8705 23.7536 29.7345 24.7649 29.8196Z" fill="#48F597"/>
<path d="M14.0045 26.6075C14.613 25.9976 15.0789 25.2612 15.369 24.4512C15.659 23.6411 15.766 22.7771 15.6823 21.9211L15.7128 21.9499C15.6274 20.9419 15.7638 19.9273 16.1125 18.9772C16.4612 18.0272 17.0139 17.1644 17.7319 16.4492C18.4499 15.7341 19.3158 15.1837 20.2693 14.8366C21.2228 14.4894 22.2409 14.3539 23.2524 14.4395L23.2219 14.4107C24.4312 14.5236 25.6461 14.262 26.7007 13.6616C27.7554 13.0613 28.5985 12.1513 29.1153 11.0558C29.632 9.96039 29.797 8.73279 29.588 7.54042C29.3789 6.34805 28.8057 5.24898 27.947 4.39307C27.0882 3.53717 25.9852 2.9661 24.7887 2.75775C23.5923 2.54938 22.3603 2.71389 21.2612 3.2288C20.1619 3.74371 19.2488 4.58399 18.6464 5.63503C18.0439 6.68607 17.7814 7.89672 17.8947 9.10188L17.8658 9.07308C17.9512 10.0808 17.8148 11.095 17.4662 12.0449C17.1176 12.9947 16.5654 13.8573 15.8478 14.5724C15.1302 15.2875 14.2646 15.838 13.3115 16.1852C12.3584 16.5326 11.3407 16.6686 10.3294 16.5835L10.3583 16.6123C9.37026 16.524 8.37577 16.6857 7.46707 17.0824C6.55838 17.479 5.76484 18.0979 5.16002 18.8816C4.5552 19.6651 4.15867 20.5883 4.00714 21.5652C3.85562 22.5424 3.95403 23.5417 4.29323 24.4707C4.63243 25.3998 5.20148 26.2284 5.94761 26.88C6.69375 27.5316 7.59285 27.9849 8.5616 28.198C9.53033 28.411 10.5374 28.3769 11.4894 28.099C12.4414 27.8209 13.3076 27.308 14.0077 26.6075H14.0045Z" fill="#48F597"/>
</svg>
