<svg width="120" height="45" viewBox="0 0 120 45" fill="none" xmlns="http://www.w3.org/2000/svg">
<g clip-path="url(#clip0_1564_378)">
<path d="M97.461 11.6443C97.4632 11.9612 97.5673 12.269 97.7579 12.5222C97.9485 12.7754 98.2155 12.9606 98.5194 13.0505L98.5382 13.0561L105.851 15.1036L107.898 22.4161L107.904 22.4349C107.994 22.7387 108.179 23.0056 108.432 23.1962C108.685 23.3867 108.993 23.4909 109.31 23.4933H109.338C109.649 23.4962 109.953 23.4011 110.206 23.2216C110.46 23.042 110.65 22.7871 110.751 22.493L116.867 6.00333C116.869 5.99847 116.871 5.99345 116.872 5.98833C116.963 5.72286 116.978 5.43707 116.915 5.16346C116.852 4.88985 116.714 4.63942 116.516 4.44065C116.317 4.24187 116.067 4.10274 115.794 4.03907C115.52 3.97541 115.234 3.98977 114.969 4.08052L114.954 4.08521L98.4613 10.2033C98.1626 10.3054 97.9045 10.5003 97.7245 10.7595C97.5445 11.0188 97.4522 11.3288 97.461 11.6443Z" fill="#007AFF"/>
</g>
<rect width="96" height="26" rx="13" transform="matrix(1 0 0 -1 0 44.0273)" fill="#007AFF"/>
<path d="M15.668 30.2733C16.2747 30.2733 16.7227 30.1473 17.012 29.8953C17.3013 29.634 17.446 29.3027 17.446 28.9013V28.8033C17.446 28.3553 17.306 28.0147 17.026 27.7813C16.746 27.5387 16.368 27.4173 15.892 27.4173C15.4253 27.4173 15.0287 27.5247 14.702 27.7393C14.3753 27.9447 14.1 28.234 13.876 28.6073L12.826 27.6973C12.9753 27.4827 13.1433 27.2773 13.33 27.0813C13.5167 26.8853 13.736 26.7173 13.988 26.5773C14.24 26.428 14.5247 26.3113 14.842 26.2273C15.1593 26.134 15.5233 26.0873 15.934 26.0873C16.3913 26.0873 16.816 26.1433 17.208 26.2553C17.6 26.3673 17.936 26.5353 18.216 26.7593C18.496 26.974 18.7153 27.24 18.874 27.5573C19.0327 27.8653 19.112 28.2153 19.112 28.6073C19.112 28.9153 19.0607 29.1953 18.958 29.4473C18.8647 29.6993 18.7293 29.9233 18.552 30.1193C18.384 30.306 18.1833 30.46 17.95 30.5813C17.726 30.7027 17.488 30.7913 17.236 30.8473V30.9173C17.516 30.9733 17.7773 31.0667 18.02 31.1973C18.272 31.3187 18.4913 31.482 18.678 31.6873C18.8647 31.8833 19.0093 32.1213 19.112 32.4013C19.224 32.672 19.28 32.9847 19.28 33.3393C19.28 33.7687 19.196 34.1607 19.028 34.5153C18.86 34.8607 18.622 35.1593 18.314 35.4113C18.0153 35.6633 17.6513 35.8593 17.222 35.9993C16.7927 36.13 16.3167 36.1953 15.794 36.1953C15.3367 36.1953 14.9353 36.144 14.59 36.0413C14.2447 35.948 13.9367 35.822 13.666 35.6633C13.4047 35.4953 13.1713 35.3087 12.966 35.1033C12.77 34.8887 12.5973 34.6693 12.448 34.4453L13.61 33.5353C13.7313 33.7313 13.8573 33.9133 13.988 34.0813C14.128 34.24 14.282 34.38 14.45 34.5013C14.6273 34.6133 14.8233 34.702 15.038 34.7673C15.262 34.8327 15.514 34.8653 15.794 34.8653C16.3913 34.8653 16.8487 34.7253 17.166 34.4453C17.4833 34.156 17.642 33.7593 17.642 33.2553V33.1573C17.642 32.6533 17.474 32.2707 17.138 32.0093C16.802 31.748 16.326 31.6173 15.71 31.6173H14.674V30.2733H15.668ZM24.5945 36.1953C23.9879 36.1953 23.4605 36.0833 23.0125 35.8593C22.5645 35.626 22.1959 35.2947 21.9065 34.8653C21.6172 34.436 21.4025 33.9087 21.2625 33.2833C21.1225 32.658 21.0525 31.944 21.0525 31.1413C21.0525 30.348 21.1225 29.6387 21.2625 29.0133C21.4025 28.3787 21.6172 27.8467 21.9065 27.4173C22.1959 26.988 22.5645 26.6613 23.0125 26.4373C23.4605 26.204 23.9879 26.0873 24.5945 26.0873C25.8079 26.0873 26.6992 26.5307 27.2685 27.4173C27.8472 28.304 28.1365 29.5453 28.1365 31.1413C28.1365 32.7373 27.8472 33.9787 27.2685 34.8653C26.6992 35.752 25.8079 36.1953 24.5945 36.1953ZM24.5945 34.8513C24.9305 34.8513 25.2152 34.786 25.4485 34.6553C25.6912 34.5153 25.8872 34.3193 26.0365 34.0673C26.1859 33.8153 26.2932 33.5167 26.3585 33.1713C26.4239 32.8167 26.4565 32.4247 26.4565 31.9953V30.2873C26.4565 29.858 26.4239 29.4707 26.3585 29.1253C26.2932 28.7707 26.1859 28.4673 26.0365 28.2153C25.8872 27.9633 25.6912 27.772 25.4485 27.6413C25.2152 27.5013 24.9305 27.4313 24.5945 27.4313C24.2585 27.4313 23.9692 27.5013 23.7265 27.6413C23.4932 27.772 23.3019 27.9633 23.1525 28.2153C23.0032 28.4673 22.8959 28.7707 22.8305 29.1253C22.7652 29.4707 22.7325 29.858 22.7325 30.2873V31.9953C22.7325 32.4247 22.7652 32.8167 22.8305 33.1713C22.8959 33.5167 23.0032 33.8153 23.1525 34.0673C23.3019 34.3193 23.4932 34.5153 23.7265 34.6553C23.9692 34.786 24.2585 34.8513 24.5945 34.8513ZM40.7777 28.5513H40.7077L39.9377 30.1333L37.7957 34.0393L35.6537 30.1333L34.8837 28.5513H34.8137V36.0273H33.3017V26.2553H35.1777L37.7957 31.2253H37.8797L40.4977 26.2553H42.2897V36.0273H40.7777V28.5513ZM45.362 27.4453C45.0447 27.4453 44.8113 27.3707 44.662 27.2213C44.522 27.072 44.452 26.8807 44.452 26.6473V26.4093C44.452 26.176 44.522 25.9847 44.662 25.8353C44.8113 25.686 45.0447 25.6113 45.362 25.6113C45.6793 25.6113 45.908 25.686 46.048 25.8353C46.188 25.9847 46.258 26.176 46.258 26.4093V26.6473C46.258 26.8807 46.188 27.072 46.048 27.2213C45.908 27.3707 45.6793 27.4453 45.362 27.4453ZM44.592 28.7473H46.118V36.0273H44.592V28.7473ZM48.2971 36.0273V28.7473H49.8231V29.9513H49.8931C50.0517 29.5593 50.2897 29.2327 50.6071 28.9713C50.9337 28.71 51.3771 28.5793 51.9371 28.5793C52.6837 28.5793 53.2624 28.8267 53.6731 29.3213C54.0931 29.8067 54.3031 30.502 54.3031 31.4073V36.0273H52.7771V31.6033C52.7771 30.4647 52.3197 29.8953 51.4051 29.8953C51.2091 29.8953 51.0131 29.9233 50.8171 29.9793C50.6304 30.026 50.4624 30.1007 50.3131 30.2033C50.1637 30.306 50.0424 30.4367 49.9491 30.5953C49.8651 30.754 49.8231 30.9407 49.8231 31.1553V36.0273H48.2971ZM63.5068 36.1953C62.2281 36.1953 61.2248 35.766 60.4968 34.9073C59.7688 34.0393 59.4048 32.784 59.4048 31.1413C59.4048 30.32 59.4981 29.5967 59.6848 28.9713C59.8714 28.346 60.1421 27.8187 60.4968 27.3893C60.8514 26.96 61.2808 26.638 61.7848 26.4233C62.2981 26.1993 62.8721 26.0873 63.5068 26.0873C64.3561 26.0873 65.0654 26.274 65.6348 26.6473C66.2134 27.0207 66.6661 27.5713 66.9928 28.2993L65.6628 29.0273C65.4948 28.5607 65.2334 28.192 64.8788 27.9213C64.5334 27.6413 64.0761 27.5013 63.5068 27.5013C62.7508 27.5013 62.1581 27.758 61.7288 28.2713C61.2994 28.7847 61.0848 29.494 61.0848 30.3993V31.8833C61.0848 32.7887 61.2994 33.498 61.7288 34.0113C62.1581 34.5247 62.7508 34.7813 63.5068 34.7813C64.0948 34.7813 64.5708 34.632 64.9348 34.3333C65.3081 34.0253 65.5834 33.6333 65.7608 33.1573L67.0348 33.9273C66.7081 34.6367 66.2508 35.192 65.6628 35.5933C65.0748 35.9947 64.3561 36.1953 63.5068 36.1953ZM73.9338 36.0273C73.5325 36.0273 73.2245 35.9153 73.0098 35.6913C72.7951 35.458 72.6645 35.164 72.6178 34.8093H72.5478C72.4078 35.2667 72.1511 35.612 71.7778 35.8453C71.4045 36.0787 70.9518 36.1953 70.4198 36.1953C69.6638 36.1953 69.0805 35.9993 68.6698 35.6073C68.2685 35.2153 68.0678 34.688 68.0678 34.0253C68.0678 33.2973 68.3291 32.7513 68.8518 32.3873C69.3838 32.0233 70.1585 31.8413 71.1758 31.8413H72.4918V31.2253C72.4918 30.7773 72.3705 30.432 72.1278 30.1893C71.8851 29.9467 71.5071 29.8253 70.9938 29.8253C70.5645 29.8253 70.2145 29.9187 69.9438 30.1053C69.6731 30.292 69.4445 30.53 69.2578 30.8193L68.3478 29.9933C68.5905 29.5827 68.9311 29.2467 69.3698 28.9853C69.8085 28.7147 70.3825 28.5793 71.0918 28.5793C72.0345 28.5793 72.7578 28.7987 73.2618 29.2373C73.7658 29.676 74.0178 30.306 74.0178 31.1273V34.7813H74.7878V36.0273H73.9338ZM70.8538 35.0333C71.3298 35.0333 71.7218 34.9307 72.0298 34.7253C72.3378 34.5107 72.4918 34.226 72.4918 33.8713V32.8213H71.2038C70.1491 32.8213 69.6218 33.148 69.6218 33.8013V34.0533C69.6218 34.38 69.7291 34.6273 69.9438 34.7953C70.1678 34.954 70.4711 35.0333 70.8538 35.0333ZM77.8374 36.0273C77.3147 36.0273 76.9227 35.8967 76.6614 35.6353C76.4094 35.3647 76.2834 34.9913 76.2834 34.5153V25.6673H77.8094V34.7813H78.8174V36.0273H77.8374ZM81.7476 36.0273C81.2249 36.0273 80.8329 35.8967 80.5716 35.6353C80.3196 35.3647 80.1936 34.9913 80.1936 34.5153V25.6673H81.7196V34.7813H82.7276V36.0273H81.7476Z" fill="#F4F4F4"/>
<defs>
<clipPath id="clip0_1564_378">
<rect width="24" height="24" fill="white" transform="translate(95.9531 2)"/>
</clipPath>
</defs>
</svg>
